<svg width="222" height="220" viewBox="0 0 222 220" fill="none" xmlns="http://www.w3.org/2000/svg">
<path d="M110.625 0.375C171.517 0.375 220.875 49.4022 220.875 109.875C220.875 170.348 171.517 219.375 110.625 219.375C49.7332 219.375 0.375 170.348 0.375 109.875C0.375 49.4022 49.7332 0.375 110.625 0.375Z" fill="url(#paint0_linear_14_66)"/>
<path d="M110.625 0.375C171.517 0.375 220.875 49.4022 220.875 109.875C220.875 170.348 171.517 219.375 110.625 219.375C49.7332 219.375 0.375 170.348 0.375 109.875C0.375 49.4022 49.7332 0.375 110.625 0.375Z" fill="url(#paint1_linear_14_66)" fill-opacity="0.9"/>
<path d="M110.625 0.375C171.517 0.375 220.875 49.4022 220.875 109.875C220.875 170.348 171.517 219.375 110.625 219.375C49.7332 219.375 0.375 170.348 0.375 109.875C0.375 49.4022 49.7332 0.375 110.625 0.375Z" stroke="#40FFB2" stroke-width="0.75"/>
<defs>
<linearGradient id="paint0_linear_14_66" x1="110.625" y1="0" x2="110.625" y2="219.75" gradientUnits="userSpaceOnUse">
<stop stop-color="#40FFB2"/>
<stop offset="1" stop-color="#26996B"/>
</linearGradient>
<linearGradient id="paint1_linear_14_66" x1="110.625" y1="0" x2="110.625" y2="219.75" gradientUnits="userSpaceOnUse">
<stop stop-color="#9AC989" stop-opacity="0"/>
<stop offset="0.567308" stop-color="#9AC989"/>
</linearGradient>
</defs>
</svg>
